<svg id="Group_3" data-name="Group 3" xmlns="http://www.w3.org/2000/svg" xmlns:xlink="http://www.w3.org/1999/xlink" width="261.204" height="47" viewBox="0 0 261.204 47">
  <defs>
    <clipPath id="clip-path">
      <rect id="Rectangle_1" data-name="Rectangle 1" width="261.204" height="47" fill="none"/>
    </clipPath>
  </defs>
  <path id="Path_1" data-name="Path 1" d="M261.653,0V11.72h-11.3V0H240V33.47h10.349V19.94h11.3V33.47h10.4V0Z" transform="translate(-181.281 0)" fill="#fff"/>
  <g id="Group_2" data-name="Group 2">
    <g id="Group_1" data-name="Group 1" clip-path="url(#clip-path)">
      <path id="Path_2" data-name="Path 2" d="M421.13,32.565a11.26,11.26,0,0,0,4.649-2.667,13.819,13.819,0,0,0,3.4-4.967,22.6,22.6,0,0,0,1.223-8.319,25.3,25.3,0,0,0-.832-6.484,14.472,14.472,0,0,0-2.642-5.358A12.094,12.094,0,0,0,422.3,1.223,18.643,18.643,0,0,0,414.965,0H399.6V33.47h15.365a23.925,23.925,0,0,0,6.166-.905m-11.181-6.679V7.585h2.618c2.667,0,4.6.636,5.75,1.957s1.737,3.743,1.737,7.291a15.865,15.865,0,0,1-.783,5.823,4.748,4.748,0,0,1-2.153,2.52,11.063,11.063,0,0,1-4.624.71Z" transform="translate(-301.832)" fill="#fff"/>
      <path id="Path_3" data-name="Path 3" d="M571.9,15.659a8.158,8.158,0,0,0,3.6-2.226,7.423,7.423,0,0,0,1.859-5.089A7.718,7.718,0,0,0,574.766,2.4C573.029.807,570.558,0,567.328,0H548V33.47h17.86c.758,0,2.3-.171,4.624-.465a10.949,10.949,0,0,0,3.939-1.1,8.85,8.85,0,0,0,3.3-3.278,9.043,9.043,0,0,0,1.2-4.673,8.275,8.275,0,0,0-1.713-5.309,9.357,9.357,0,0,0-5.309-2.985M558.4,6.8h4.575a5.163,5.163,0,0,1,3.3.832,2.817,2.817,0,0,1,.954,2.275,3.044,3.044,0,0,1-.954,2.4,5.16,5.16,0,0,1-3.376.832h-4.5Zm9.028,18.521a5.769,5.769,0,0,1-3.768.954H558.4v-6.8h5.26a5.983,5.983,0,0,1,3.792.905,3.036,3.036,0,0,1,1.077,2.4,3.21,3.21,0,0,1-1.1,2.545" transform="translate(-413.924)" fill="#fff"/>
      <path id="Path_4" data-name="Path 4" d="M725.588,68.4H717V85.135h5.187V78.921h2.838a6.609,6.609,0,0,0,4.649-1.419,5.216,5.216,0,0,0,1.517-3.964,4.987,4.987,0,0,0-1.395-3.792,5.8,5.8,0,0,0-4.208-1.346m0,6.63a3.311,3.311,0,0,1-2.1.514h-1.248V71.825H723.7a2.707,2.707,0,0,1,1.982.538,1.927,1.927,0,0,1,.514,1.346,1.7,1.7,0,0,1-.612,1.321" transform="translate(-541.576 -51.665)" fill="#fff"/>
      <path id="Path_5" data-name="Path 5" d="M792.137,67.3a7.9,7.9,0,0,0-8.637,8.661,9.654,9.654,0,0,0,1.125,4.893,6.91,6.91,0,0,0,3.009,2.863,10.651,10.651,0,0,0,4.7.905,9.533,9.533,0,0,0,4.649-1.052,6.986,6.986,0,0,0,2.863-2.912,10.3,10.3,0,0,0,.979-4.82,8.422,8.422,0,0,0-2.251-6.288,8.727,8.727,0,0,0-6.435-2.251m2.618,12.356a3.184,3.184,0,0,1-2.569,1.077,3.227,3.227,0,0,1-2.569-1.1,5.564,5.564,0,0,1-.954-3.646,5.754,5.754,0,0,1,.93-3.67,3.16,3.16,0,0,1,2.52-1.1,3.243,3.243,0,0,1,2.593,1.1,5.187,5.187,0,0,1,.954,3.45,6.218,6.218,0,0,1-.905,3.89" transform="translate(-591.806 -50.834)" fill="#fff"/>
      <path id="Path_6" data-name="Path 6" d="M871.737,67.3a7.9,7.9,0,0,0-8.637,8.661,9.912,9.912,0,0,0,1.125,4.893,6.91,6.91,0,0,0,3.009,2.863,10.651,10.651,0,0,0,4.7.905,9.534,9.534,0,0,0,4.649-1.052,6.986,6.986,0,0,0,2.863-2.912,10.3,10.3,0,0,0,.979-4.82,8.422,8.422,0,0,0-2.251-6.288,8.727,8.727,0,0,0-6.435-2.251m2.618,12.356a3.184,3.184,0,0,1-2.569,1.077,3.227,3.227,0,0,1-2.569-1.1,5.564,5.564,0,0,1-.954-3.646,5.754,5.754,0,0,1,.93-3.67,3.16,3.16,0,0,1,2.52-1.1,3.243,3.243,0,0,1,2.593,1.1,5.187,5.187,0,0,1,.954,3.45,6.218,6.218,0,0,1-.905,3.89" transform="translate(-651.93 -50.834)" fill="#fff"/>
      <path id="Path_7" data-name="Path 7" d="M950.562,68.4H945.4V85.135h13.236v-4.11h-8.074Z" transform="translate(-714.094 -51.665)" fill="#fff"/>
      <path id="Path_8" data-name="Path 8" d="M1019.958,76.3a5.026,5.026,0,0,0-2.129-1.859,22.787,22.787,0,0,0-4.869-1.468,4.422,4.422,0,0,1-1.737-.612.893.893,0,0,1-.367-.71,1.194,1.194,0,0,1,.465-.93,2.035,2.035,0,0,1,1.37-.391,2.6,2.6,0,0,1,1.713.514,2.55,2.55,0,0,1,.807,1.639l4.869-.294a5.178,5.178,0,0,0-2.006-3.792,8.356,8.356,0,0,0-4.893-1.2,10.44,10.44,0,0,0-4.11.661,4.975,4.975,0,0,0-2.251,1.811,4.361,4.361,0,0,0-.759,2.447,4.11,4.11,0,0,0,1.468,3.23,11.316,11.316,0,0,0,4.844,2.031,6.944,6.944,0,0,1,2.642.979,1.582,1.582,0,0,1,.563,1.174,1.606,1.606,0,0,1-.612,1.2,2.6,2.6,0,0,1-1.713.514,2.727,2.727,0,0,1-2.275-1.028,3.522,3.522,0,0,1-.661-1.835l-4.918.318a6.4,6.4,0,0,0,1.884,4.159c1.1,1.1,3.083,1.639,5.921,1.639a10.116,10.116,0,0,0,4.037-.71,5.472,5.472,0,0,0,2.5-2.055,5.314,5.314,0,0,0,.881-2.96,4.73,4.73,0,0,0-.661-2.471" transform="translate(-759.415 -50.759)" fill="#fff"/>
      <path id="Path_9" data-name="Path 9" d="M241.957,160.936l5.211-6.435v-1.1h-6.63v1.1H245.7q-.44.477-.954,1.1L240,161.547v1.15h7.315v-1.1h-5.921Z" transform="translate(-181.281 -115.868)" fill="#fff"/>
      <path id="Path_10" data-name="Path 10" d="M278.373,167.69l-.391,1.3-.343-1.272-1-3.89h-1.174l-1.077,3.939c-.22.856-.318,1.321-.343,1.395l-.391-1.444-1.076-3.866H271.4l2.055,6.7V170.5h1.174l1.37-5.162.269,1.15,1.077,4.012h1.174l2.1-6.7h-1.1Z" transform="translate(-204.998 -123.724)" fill="#fff"/>
      <path id="Path_11" data-name="Path 11" d="M314.656,163.3a3.023,3.023,0,0,0-2.275.93,3.643,3.643,0,0,0-.881,2.618,3.487,3.487,0,0,0,.856,2.545,3.006,3.006,0,0,0,2.324.905,3.071,3.071,0,0,0,1.933-.563,2.924,2.924,0,0,0,1.028-1.59L316.467,168a2.482,2.482,0,0,1-.661,1.028,1.752,1.752,0,0,1-1.077.318,1.829,1.829,0,0,1-1.395-.587,2.525,2.525,0,0,1-.636-1.688h5.016v-.294a3.658,3.658,0,0,0-.856-2.569,2.844,2.844,0,0,0-2.2-.905m-1.933,2.863a2.129,2.129,0,0,1,.563-1.419,1.868,1.868,0,0,1,1.321-.514,1.751,1.751,0,0,1,1.419.661,2.241,2.241,0,0,1,.44,1.272Z" transform="translate(-235.287 -123.346)" fill="#fff"/>
      <path id="Path_12" data-name="Path 12" d="M349.446,163.5a2.424,2.424,0,0,0-2.08,1.174,1.71,1.71,0,0,0-.685-.856,2.118,2.118,0,0,0-1.223-.318,2.418,2.418,0,0,0-1.2.294,2.548,2.548,0,0,0-.832.783v-.954H342.4v6.7h1.174v-3.474a4.125,4.125,0,0,1,.171-1.395,1.466,1.466,0,0,1,.587-.734,1.6,1.6,0,0,1,.881-.245,1.092,1.092,0,0,1,.905.391,2.1,2.1,0,0,1,.269,1.15v4.355h1.15v-3.89a2.049,2.049,0,0,1,.465-1.517,1.586,1.586,0,0,1,1.174-.465,1.241,1.241,0,0,1,.685.171.952.952,0,0,1,.391.489,2.957,2.957,0,0,1,.122.979v4.233h1.15v-4.6a2.322,2.322,0,0,0-.538-1.713,2.09,2.09,0,0,0-1.541-.563" transform="translate(-258.627 -123.497)" fill="#fff"/>
      <path id="Path_13" data-name="Path 13" d="M391.565,156.852a2.345,2.345,0,0,0-.905-.71,2.734,2.734,0,0,0-1.174-.245,2.247,2.247,0,0,0-1.835.905v-3.3H386.5v9.273h1.052v-.832a2.139,2.139,0,0,0,1.859,1,2.644,2.644,0,0,0,2.055-.954,3.879,3.879,0,0,0,.856-2.667,4.126,4.126,0,0,0-.2-1.37,3.33,3.33,0,0,0-.563-1.1m-.979,4.5a1.705,1.705,0,0,1-1.3.636,1.632,1.632,0,0,1-1.444-.881,3.413,3.413,0,0,1-.318-1.737,3.14,3.14,0,0,1,.514-1.884,1.705,1.705,0,0,1,1.3-.636,1.587,1.587,0,0,1,1.272.636,2.993,2.993,0,0,1,.514,1.933,2.938,2.938,0,0,1-.538,1.933" transform="translate(-291.937 -115.944)" fill="#fff"/>
      <path id="Path_14" data-name="Path 14" d="M420.074,167.361v-1.517a5.53,5.53,0,0,0-.049-1.052,1.537,1.537,0,0,0-.343-.783,1.747,1.747,0,0,0-.783-.514,4.445,4.445,0,0,0-1.395-.2,4.807,4.807,0,0,0-1.517.245,2.216,2.216,0,0,0-1,.685,2.92,2.92,0,0,0-.489,1.15l1.1.147a1.781,1.781,0,0,1,.563-1,2.077,2.077,0,0,1,1.174-.269,1.869,1.869,0,0,1,1.3.391,1.241,1.241,0,0,1,.318.979v.294a9.868,9.868,0,0,1-2.031.391,9.088,9.088,0,0,0-1,.171,2.419,2.419,0,0,0-.807.367,1.879,1.879,0,0,0-.807,1.566,1.814,1.814,0,0,0,.587,1.37,2.48,2.48,0,0,0,1.713.538,3.524,3.524,0,0,0,1.248-.22,3.976,3.976,0,0,0,1.223-.758c.049.318.122.587.171.832h1.2a2.69,2.69,0,0,1-.294-.807,15.876,15.876,0,0,1-.073-2.006m-1.1-.171a2.839,2.839,0,0,1-.171,1.15,1.941,1.941,0,0,1-.758.783,2.325,2.325,0,0,1-1.174.294,1.488,1.488,0,0,1-1-.294,1,1,0,0,1-.343-.758,1.048,1.048,0,0,1,.147-.538.82.82,0,0,1,.44-.367,5.88,5.88,0,0,1,1-.22,8.31,8.31,0,0,0,1.859-.44Z" transform="translate(-312.936 -123.346)" fill="#fff"/>
      <path id="Path_15" data-name="Path 15" d="M448.3,156.627a2.562,2.562,0,0,0-.783-.661,2.185,2.185,0,0,0-1.077-.245,2.642,2.642,0,0,0-2.5,1.688,5,5,0,0,0-.342,1.835,4.309,4.309,0,0,0,.367,1.835,2.944,2.944,0,0,0,1.052,1.248,2.589,2.589,0,0,0,1.468.44,2.1,2.1,0,0,0,1.884-1v.807h1.052V153.3H448.3Zm-.44,4.6a1.6,1.6,0,0,1-1.272.612,1.658,1.658,0,0,1-1.272-.636,2.938,2.938,0,0,1-.538-1.933,3.24,3.24,0,0,1,.489-1.957,1.634,1.634,0,0,1,2.569.024,3.1,3.1,0,0,1,.538,2.031,2.858,2.858,0,0,1-.514,1.859" transform="translate(-335.067 -115.793)" fill="#fff"/>
      <path id="Path_16" data-name="Path 16" d="M479.865,156.852a2.344,2.344,0,0,0-.905-.71,2.733,2.733,0,0,0-1.174-.245,2.247,2.247,0,0,0-1.835.905v-3.3H474.8v9.273h1.052v-.832a2.139,2.139,0,0,0,1.859,1,2.644,2.644,0,0,0,2.055-.954,3.879,3.879,0,0,0,.856-2.667,4.126,4.126,0,0,0-.2-1.37,3.33,3.33,0,0,0-.563-1.1m-.979,4.5a1.705,1.705,0,0,1-1.3.636,1.632,1.632,0,0,1-1.444-.881,3.413,3.413,0,0,1-.318-1.737,3.141,3.141,0,0,1,.514-1.884,1.705,1.705,0,0,1,1.3-.636,1.587,1.587,0,0,1,1.272.636,2.993,2.993,0,0,1,.514,1.933,2.938,2.938,0,0,1-.538,1.933" transform="translate(-358.633 -115.944)" fill="#fff"/>
      <path id="Path_17" data-name="Path 17" d="M505.632,163.4a3.151,3.151,0,0,0-2.1.734A3.494,3.494,0,0,0,502.5,166.9a3.581,3.581,0,0,0,.881,2.593,3,3,0,0,0,2.275.905,3.3,3.3,0,0,0,1.615-.416,2.83,2.83,0,0,0,1.125-1.15,4.282,4.282,0,0,0,.391-2.031,3.453,3.453,0,0,0-.881-2.5,3,3,0,0,0-2.275-.905m1.444,5.432a1.877,1.877,0,0,1-1.419.636,1.84,1.84,0,0,1-1.419-.636,2.937,2.937,0,0,1-.563-1.933,2.518,2.518,0,0,1,.587-1.908,1.874,1.874,0,0,1,2.814,0,2.794,2.794,0,0,1,.563,1.884,2.965,2.965,0,0,1-.563,1.957" transform="translate(-379.556 -123.422)" fill="#fff"/>
      <path id="Path_18" data-name="Path 18" d="M537.931,167.7a3.573,3.573,0,0,1-.2,1.321,1.486,1.486,0,0,1-.636.71,1.873,1.873,0,0,1-.954.269,1.366,1.366,0,0,1-.856-.245,1.18,1.18,0,0,1-.465-.71,6.241,6.241,0,0,1-.073-1.2v-3.719H533.6v4.159a5.483,5.483,0,0,0,.073,1.052,1.82,1.82,0,0,0,.343.832,1.867,1.867,0,0,0,.758.563,2.765,2.765,0,0,0,1.1.22A2.446,2.446,0,0,0,538,169.8v.979l1.077.024v-6.7h-1.15Z" transform="translate(-403.047 -123.951)" fill="#fff"/>
      <path id="Path_19" data-name="Path 19" d="M566.673,167.69l-.391,1.3-.342-1.272-1-3.89h-1.174l-1.077,3.939c-.22.856-.318,1.321-.343,1.395l-.391-1.444-1.077-3.866H559.7l2.055,6.7V170.5h1.174l1.37-5.162.269,1.15,1.077,4.012h1.174l2.1-6.7h-1.1Z" transform="translate(-422.761 -123.724)" fill="#fff"/>
      <path id="Path_20" data-name="Path 20" d="M602.956,163.3a3.023,3.023,0,0,0-2.275.93,3.643,3.643,0,0,0-.881,2.618,3.487,3.487,0,0,0,.856,2.545,3.006,3.006,0,0,0,2.324.905,3.071,3.071,0,0,0,1.933-.563,2.924,2.924,0,0,0,1.028-1.59L604.767,168a2.262,2.262,0,0,1-.661,1.028,1.752,1.752,0,0,1-1.077.318,1.829,1.829,0,0,1-1.395-.587,2.526,2.526,0,0,1-.636-1.688h5.016v-.294a3.658,3.658,0,0,0-.856-2.569,2.844,2.844,0,0,0-2.2-.905m-1.933,2.863a2.256,2.256,0,0,1,.563-1.419,1.868,1.868,0,0,1,1.321-.514,1.752,1.752,0,0,1,1.419.661,2.241,2.241,0,0,1,.44,1.272Z" transform="translate(-453.05 -123.346)" fill="#fff"/>
      <path id="Path_21" data-name="Path 21" d="M632.462,163.62a3.381,3.381,0,0,0-.734.954v-1.028H630.7v6.7h1.174v-3.523a4.662,4.662,0,0,1,.2-1.321,1.2,1.2,0,0,1,.416-.612,1.073,1.073,0,0,1,.661-.22,1.553,1.553,0,0,1,.832.245l.391-1.052a2.2,2.2,0,0,0-1.174-.367,1.132,1.132,0,0,0-.734.22" transform="translate(-476.39 -123.422)" fill="#fff"/>
      <path id="Path_22" data-name="Path 22" d="M651.075,166.527a12.745,12.745,0,0,0-1.688-.538c-.563-.147-.881-.245-1-.294a1,1,0,0,1-.44-.294.6.6,0,0,1-.147-.391.76.76,0,0,1,.343-.612,1.9,1.9,0,0,1,1.125-.269,1.606,1.606,0,0,1,1.028.294,1.209,1.209,0,0,1,.44.807l1.1-.147a2.426,2.426,0,0,0-.391-1.052,2.022,2.022,0,0,0-.881-.612,4.069,4.069,0,0,0-1.395-.22,3.155,3.155,0,0,0-.979.147,2.579,2.579,0,0,0-.734.343,1.994,1.994,0,0,0-.563.636,1.892,1.892,0,0,0-.2.832,1.623,1.623,0,0,0,.245.905,1.7,1.7,0,0,0,.734.636,12.867,12.867,0,0,0,1.737.538,5.5,5.5,0,0,1,1.174.391.7.7,0,0,1,.343.612,1.013,1.013,0,0,1-.391.758,2.229,2.229,0,0,1-2.373-.049,1.56,1.56,0,0,1-.538-1.028l-1.125.171a2.388,2.388,0,0,0,.881,1.59,3.162,3.162,0,0,0,2.006.538,3.267,3.267,0,0,0,1.419-.269,2.179,2.179,0,0,0,.954-.783,1.935,1.935,0,0,0,.343-1.077,1.77,1.77,0,0,0-.269-.979,2.04,2.04,0,0,0-.758-.587" transform="translate(-488.325 -123.271)" fill="#fff"/>
      <path id="Path_23" data-name="Path 23" d="M40.939,16.366a8.067,8.067,0,0,0-11.415,0l-1.713,1.713a6.109,6.109,0,0,1-8.647,0l-1.713-1.713a8.067,8.067,0,0,0-11.415,0L4.324,18.079A6.157,6.157,0,0,1,0,19.872v1.957a8.129,8.129,0,0,0,5.708-2.366L7.42,17.75a6.11,6.11,0,0,1,8.647,0l1.713,1.713a8.067,8.067,0,0,0,11.415,0l1.713-1.713a6.11,6.11,0,0,1,8.647,0l1.713,1.713a8.129,8.129,0,0,0,5.708,2.366V19.872a6.157,6.157,0,0,1-4.323-1.793Z" transform="translate(0 -10.575)" fill="#fff"/>
      <path id="Path_24" data-name="Path 24" d="M40.939,46.366a8.067,8.067,0,0,0-11.415,0l-1.713,1.713a6.109,6.109,0,0,1-8.647,0l-1.713-1.713a8.067,8.067,0,0,0-11.415,0L4.324,48.079A6.157,6.157,0,0,1,0,49.872v1.957a8.129,8.129,0,0,0,5.708-2.366L7.42,47.75a6.11,6.11,0,0,1,8.647,0l1.713,1.713a8.067,8.067,0,0,0,11.415,0l1.713-1.713a6.11,6.11,0,0,1,8.647,0l1.713,1.713a8.129,8.129,0,0,0,5.708,2.366V49.872a6.157,6.157,0,0,1-4.323-1.793Z" transform="translate(0 -33.235)" fill="#fff"/>
      <path id="Path_25" data-name="Path 25" d="M40.939,76.366a8.067,8.067,0,0,0-11.415,0l-1.713,1.713a6.109,6.109,0,0,1-8.647,0l-1.713-1.713a8.067,8.067,0,0,0-11.415,0L4.324,78.079A6.157,6.157,0,0,1,0,79.872v1.957a8.129,8.129,0,0,0,5.708-2.366L7.42,77.75a6.11,6.11,0,0,1,8.647,0l1.713,1.713a8.067,8.067,0,0,0,11.415,0l1.713-1.713a6.11,6.11,0,0,1,8.647,0l1.713,1.713a8.129,8.129,0,0,0,5.708,2.366V79.872a6.157,6.157,0,0,1-4.323-1.793Z" transform="translate(0 -55.895)" fill="#fff"/>
      <path id="Path_26" data-name="Path 26" d="M40.939,106.366a8.067,8.067,0,0,0-11.415,0l-1.713,1.713a6.11,6.11,0,0,1-8.647,0l-1.713-1.713a8.067,8.067,0,0,0-11.415,0l-1.713,1.713A6.158,6.158,0,0,1,0,109.872v1.957a8.128,8.128,0,0,0,5.708-2.366L7.42,107.75a6.11,6.11,0,0,1,8.647,0l1.713,1.713a8.067,8.067,0,0,0,11.415,0l1.713-1.713a6.11,6.11,0,0,1,8.647,0l1.713,1.713a8.128,8.128,0,0,0,5.708,2.366v-1.957a6.158,6.158,0,0,1-4.323-1.793Z" transform="translate(0 -78.555)" fill="#fff"/>
    </g>
  </g>
</svg>
